<svg
  xmlns="http://www.w3.org/2000/svg"
  viewBox="700 0 20000 10000"
 >
 <defs>
  <style type="text/css">
    .fil0 {fill:#676767;fill-rule:nonzero}
    .fil1 {fill:#FEB818;fill-rule:nonzero}
  </style>
 </defs>
 <g id="Слой_x0020_1">
  <metadata id="CorelCorpID_0Corel-Layer"/>
  <path class="fil0" d="M1982.84 2924.32l0.27 0.3 0 2921.26 -0.21 0.17c0.14,2.85 0.21,5.71 0.21,8.59 0,97.05 -78.67,175.72 -175.72,175.72 -97.05,0 -175.72,-78.67 -175.72,-175.72 0,-1.8 0.04,-3.59 0.09,-5.37l-0.1 -0.07 0 -2932.02 0.04 -0.05 -0.03 -2.45c0,-97.05 78.67,-175.72 175.72,-175.72 97.05,0 175.72,78.67 175.72,175.72 0,3.24 -0.1,6.45 -0.27,9.64z"/>
  <path class="fil0" d="M4314.01 3069.91l-1.8 1.23 -1.17 0.8 -1542.64 1054.58 -12.36 7.55c-0.35,0.2 -125.68,70.65 -123.6,248.54 2.14,182.06 125.19,253.52 125.54,253.72l10.29 6.17 1535.12 1039.07c5.01,3.04 9.86,6.33 14.53,9.84l0.05 0.03c42.61,32.06 70.17,83.06 70.17,140.5 0,97.05 -78.67,175.72 -175.72,175.72 -31.56,0 -61.16,-8.33 -86.76,-22.89l-0.06 0.09 -1.12 -0.76c-7.12,-4.12 -13.93,-8.73 -20.37,-13.78l-1532.15 -1036.76 0.16 -0.23c-51.93,-34.22 -285.76,-207.06 -289.75,-546.62 -4,-339.53 231.43,-512.87 288.38,-549.81l1537.94 -1052.22c3.5,-2.59 7.11,-5.05 10.8,-7.38l0.67 -0.46 0.02 0.03c26.97,-16.85 58.82,-26.59 92.96,-26.59 97.05,0 175.72,78.67 175.72,175.72 0,59.52 -29.6,112.12 -74.86,143.9l0.01 0.01z"/>
  <path class="fil0" d="M5093.84 5806.51l583.37 -2545.18 1.36 -4.8c0.38,-1.49 132.01,-521.81 660.41,-520.21 523.51,1.59 643.32,506.12 647.85,526.03l0.15 -0.03 587.38 2539.52c4.73,15.9 7.29,32.75 7.29,50.19 0,97.05 -78.67,175.72 -175.72,175.72 -87.92,0 -160.75,-64.56 -173.68,-148.86l-587.1 -2538.32 0 -0.69c-0.16,-0.71 -55.28,-252.72 -306.17,-253.48 -235.43,-0.72 -309.52,217.84 -319.95,253.18l-581.63 2537.62c-11.85,85.53 -85.25,151.4 -174.04,151.4 -97.05,0 -175.72,-78.67 -175.72,-175.72 0,-16.05 2.17,-31.6 6.2,-46.37z"/>
  <path class="fil0" d="M8772.78 5849.94l-9.33 -2486.45 -0.69 0 0 -1.94 0.69 0c0.24,-125.98 53.68,-283.18 163.24,-406.1 109.52,-122.9 274.12,-216.02 495.87,-217.03l0.69 -0.69 3.92 0 0.69 0.69c514.88,3.74 633.06,437.67 633.41,438.9l579.59 2281.31c0.17,0.6 54.83,215.98 307.76,218.33l4.72 0.03 0 -0.69c123.07,0 199.33,-51.27 244.46,-113.01 49.36,-67.52 67,-143.03 67.39,-186.03l0.02 -1.18 -0.69 0 -0.34 -2454.54c-0.46,-5.16 -0.7,-10.38 -0.7,-15.66 0,-97.05 78.67,-175.72 175.72,-175.72 97.05,0 175.72,78.67 175.72,175.72 0,4.86 -0.2,9.68 -0.59,14.45l1.64 2455.75 -0.69 0.69 -0.01 3.24c-0.89,94.6 -36.17,255.85 -134.65,390.58 -102.7,140.52 -269.27,257.16 -527.28,257.16l-0.69 -0.69 -6.79 -0.02c-524.01,-4.9 -643.74,-475.11 -644.1,-476.45l-579.08 -2279.99c-7.42,-23.03 -66.38,-180.13 -295.51,-182.1l0 0.68 -3.92 0 0 -0.68c-106.39,0.68 -183.84,43.67 -234.35,100.34 -50.6,56.76 -75.3,122.91 -75.38,172.71l0.69 0 0 1.94 -0.69 0 9.29 2473.97c0.79,6.78 1.21,13.66 1.21,20.65 0,97.05 -78.67,175.72 -175.72,175.72 -97.05,0 -175.72,-78.67 -175.72,-175.72 0,-2.74 0.07,-5.46 0.2,-8.17z"/>
  <path class="fil0" d="M16473.64 2919.32l3.21 2443.32 0.69 0 0 1.57 -0.68 0c0.51,67.61 26.5,146.57 79.42,209.27 50.31,59.62 127.55,102.85 233.74,102.82l218.94 -1.34c354.26,-2.29 831.34,-5.38 969.94,1.33l5.52 0.28c50.53,0.41 121.76,-21.31 184.43,-70.15 61.64,-48.05 111.37,-124.32 116.71,-234.69l0.59 -12.52c5.59,-281.35 2.3,-1797.19 0.65,-2434.09 -0.69,-6.32 -1.05,-12.74 -1.05,-19.24 0,-97.05 78.67,-175.72 175.72,-175.72 97.05,0 175.72,78.67 175.72,175.72 0,3.58 -0.12,7.14 -0.33,10.66 1.62,632.92 4.98,2166.08 -0.64,2449.53l-0.59 22.14c-11.09,229.12 -118.21,390.45 -251.24,494.14 -131.14,102.2 -291.47,146.63 -408.89,144.29l-13.08 -0.28c-136.49,-6.61 -604.54,-3.57 -952.08,-1.32 -73.27,0.45 -146.68,1.33 -219.94,1.33 -224.44,0.3 -390.91,-94.94 -501.82,-226.36 -108.17,-128.17 -161.09,-292.73 -161.81,-435.11l-0.68 -0.69 0 -1.57 0.68 0 -3.2 -2439.24c-0.57,-5.76 -0.87,-11.61 -0.87,-17.52 0,-97.05 78.67,-175.72 175.72,-175.72 97.05,0 175.72,78.67 175.72,175.72 0,4.52 -0.16,9 -0.5,13.44z"/>
  <path class="fil0" d="M3433.98 7684.77c0,12.85 -4.34,23.43 -13.02,31.75 -8.66,8.31 -19.69,12.47 -33.09,12.47 -13.42,0 -24.45,-4.16 -33.11,-12.47 -8.68,-8.32 -13.02,-18.9 -13.02,-31.75l0 -493.24c0,-12.1 4.34,-22.49 13.02,-31.18 8.66,-8.7 19.69,-13.04 33.11,-13.04l331.07 0c13.41,0 24.44,4.34 33.11,13.04 8.68,8.69 13.01,19.08 13.01,31.18l0 493.24c0,12.85 -4.33,23.43 -13.01,31.75 -8.67,8.31 -19.7,12.47 -33.11,12.47 -13.4,0 -24.43,-4.16 -33.1,-12.47 -8.68,-8.32 -13.01,-18.9 -13.01,-31.75l0 -462.63 -238.85 0 0 462.63zm771.7 44.22c-36.26,0 -68.19,-5.1 -95.78,-15.31 -27.59,-10.2 -50.65,-24.38 -69.18,-42.52 -18.52,-18.14 -32.51,-39.49 -41.97,-64.06 -9.46,-24.57 -14.18,-51.22 -14.18,-79.94l0 -189.36c0,-27.97 4.72,-54.24 14.18,-78.81 9.46,-24.56 23.45,-45.92 41.97,-64.06 18.53,-18.14 41.59,-32.51 69.18,-43.09 27.59,-10.58 59.52,-15.87 95.78,-15.87 36.26,0 68.19,5.29 95.78,15.87 27.59,10.58 50.65,24.95 69.17,43.09 18.52,18.14 32.51,39.5 41.97,64.06 9.46,24.57 14.19,50.84 14.19,78.81l0 189.36c0,28.72 -4.73,55.37 -14.19,79.94 -9.46,24.57 -23.45,45.92 -41.97,64.06 -18.52,18.14 -41.58,32.32 -69.17,42.52 -27.59,10.21 -59.52,15.31 -95.78,15.31zm0 -81.64c42.56,0 74.69,-10.58 96.36,-31.75 21.68,-21.16 32.53,-50.64 32.53,-88.44l0 -190.49c0,-37.05 -10.85,-66.15 -32.53,-87.31 -21.67,-21.17 -53.8,-31.75 -96.36,-31.75 -42.57,0 -74.69,10.58 -96.37,31.75 -21.68,21.16 -32.52,50.26 -32.52,87.31l0 190.49c0,37.8 10.84,67.28 32.52,88.44 21.68,21.17 53.8,31.75 96.37,31.75zm886.39 37.42c0,12.85 -4.33,23.43 -13,31.75 -8.67,8.31 -19.71,12.47 -33.11,12.47 -13.4,0 -24.44,-4.16 -33.11,-12.47 -8.67,-8.32 -13.01,-18.9 -13.01,-31.75l0 -462.63 -188.01 0 -26 312.96c-4.74,57.45 -17.94,103.56 -39.62,138.33 -21.68,34.77 -55.77,52.16 -102.28,52.16 -9.46,0 -18.52,-0.19 -27.2,-0.57 -8.66,-0.38 -16.35,-1.89 -23.05,-4.53 -6.71,-2.65 -12.03,-6.62 -15.97,-11.91 -3.94,-5.29 -5.91,-12.85 -5.91,-22.68 0,-15.12 4.53,-26.08 13.6,-32.88 9.07,-6.8 19.11,-10.2 30.16,-10.2 3.94,0 6.49,0.18 7.68,0.56 1.18,0.38 3.74,0.57 7.69,0.57 21.28,0 37.05,-8.32 47.29,-24.95 10.25,-16.63 16.95,-42.33 20.1,-77.1l30.75 -350.37c1.57,-16.63 7.29,-28.16 17.14,-34.59 9.85,-6.42 19.11,-9.63 27.79,-9.63l271.96 0c13.4,0 24.44,4.34 33.11,13.04 8.67,8.69 13,19.08 13,31.18l0 493.24zm440.62 44.22c-36.26,0 -68.19,-5.1 -95.77,-15.31 -27.59,-10.2 -50.65,-24.38 -69.18,-42.52 -18.52,-18.14 -32.51,-39.49 -41.97,-64.06 -9.46,-24.57 -14.19,-51.22 -14.19,-79.94l0 -189.36c0,-27.97 4.73,-54.24 14.19,-78.81 9.46,-24.56 23.45,-45.92 41.97,-64.06 18.53,-18.14 41.59,-32.51 69.18,-43.09 27.58,-10.58 59.51,-15.87 95.77,-15.87 36.27,0 68.19,5.29 95.79,15.87 27.59,10.58 50.65,24.95 69.17,43.09 18.52,18.14 32.51,39.5 41.97,64.06 9.46,24.57 14.19,50.84 14.19,78.81l0 189.36c0,28.72 -4.73,55.37 -14.19,79.94 -9.46,24.57 -23.45,45.92 -41.97,64.06 -18.52,18.14 -41.58,32.32 -69.17,42.52 -27.6,10.21 -59.52,15.31 -95.79,15.31zm0 -81.64c42.57,0 74.7,-10.58 96.37,-31.75 21.68,-21.16 32.53,-50.64 32.53,-88.44l0 -190.49c0,-37.05 -10.85,-66.15 -32.53,-87.31 -21.67,-21.17 -53.8,-31.75 -96.37,-31.75 -42.56,0 -74.68,10.58 -96.36,31.75 -21.68,21.16 -32.52,50.26 -32.52,87.31l0 190.49c0,37.8 10.84,67.28 32.52,88.44 21.68,21.17 53.8,31.75 96.36,31.75zm750.42 37.42c0,12.85 -4.33,23.43 -13.01,31.75 -8.66,8.31 -19.71,12.47 -33.11,12.47 -13.4,0 -24.43,-4.16 -33.11,-12.47 -8.66,-8.32 -13,-18.9 -13,-31.75l0 -223.38 -43.75 0 -158.44 246.06c-10.25,14.36 -22.87,21.54 -37.85,21.54 -12.6,0 -22.86,-3.4 -30.74,-10.2 -7.88,-6.81 -12.22,-15.88 -13,-27.22 0,-3.78 0.58,-8.12 1.77,-13.04 1.18,-4.91 2.95,-9.26 5.32,-13.04l147.81 -230.18 -147.81 -230.18c-3.15,-3.78 -5.12,-8.12 -5.91,-13.04 -0.79,-4.91 -1.18,-9.26 -1.18,-13.04 0.78,-11.33 5.32,-20.41 13.6,-27.21 8.27,-6.8 18.32,-10.2 30.14,-10.2 15.77,0 28.38,7.18 37.85,21.54l143.07 223.38 59.12 0 0 -201.84c0,-12.09 4.34,-22.48 13,-31.18 8.68,-8.69 19.71,-13.04 33.11,-13.04 13.4,0 24.45,4.35 33.11,13.04 8.68,8.7 13.01,19.09 13.01,31.18l0 201.84 57.94 0 144.26 -223.38c7.88,-14.36 20.49,-21.54 37.83,-21.54 12.62,0 22.87,3.4 30.76,10.2 7.87,6.8 12.21,15.88 13,27.21 0,3.78 -0.6,8.13 -1.77,13.04 -1.19,4.92 -2.97,9.26 -5.33,13.04l-147.8 230.18 147.8 230.18c2.36,3.78 4.14,8.13 5.33,13.04 1.17,4.92 1.77,9.26 1.77,13.04 -0.79,11.34 -5.32,20.41 -13.6,27.22 -8.28,6.8 -18.33,10.2 -30.16,10.2 -15.75,0 -28.37,-7.18 -37.83,-21.54l-158.45 -246.06 -43.75 0 0 223.38zm531.68 46.49c-15.77,0 -28.39,-4.91 -37.85,-14.74 -9.45,-9.83 -14.19,-21.55 -14.19,-35.15l0 -495.51c0,-12.85 4.14,-23.81 12.42,-32.89 8.28,-9.07 19.12,-13.6 32.52,-13.6 13.4,0 24.63,4.53 33.7,13.6 9.06,9.08 13.6,20.04 13.6,32.89l0 382.12 262.5 -401.4c10.25,-18.14 26.4,-27.21 48.48,-27.21 14.97,0 27,4.72 36.06,14.17 9.07,9.45 13.6,21.36 13.6,35.72l0 495.51c0,12.85 -4.33,23.81 -13.01,32.88 -8.66,9.07 -19.71,13.61 -33.11,13.61 -13.4,0 -24.43,-4.54 -33.11,-13.61 -8.66,-9.07 -13,-20.03 -13,-32.88l0 -382.12 -261.32 402.53c-11.83,17.39 -27.59,26.08 -47.29,26.08zm855.65 -46.49c0,12.85 -4.34,23.43 -13.01,31.75 -8.67,8.31 -19.71,12.47 -33.11,12.47 -13.4,0 -24.44,-4.16 -33.11,-12.47 -8.67,-8.32 -13.01,-18.9 -13.01,-31.75l0 -453.56 -122.96 0c-11.83,0 -21.88,-3.97 -30.16,-11.9 -8.27,-7.94 -12.41,-17.96 -12.41,-30.05 0,-12.1 4.14,-22.11 12.41,-30.05 8.28,-7.94 18.33,-11.9 30.16,-11.9l338.17 0c11.83,0 21.88,3.96 30.15,11.9 8.28,7.94 12.42,17.95 12.42,30.05 0,12.09 -4.14,22.11 -12.42,30.05 -8.27,7.93 -18.32,11.9 -30.15,11.9l-122.97 0 0 453.56zm543.49 -34.02c25.22,0 46.9,-3.02 65.04,-9.07 18.12,-6.05 37.44,-13.61 57.94,-22.68 1.57,-0.75 3.74,-1.51 6.49,-2.26 2.77,-0.76 6.12,-1.14 10.06,-1.14 11.82,0 21.68,3.97 29.56,11.91 7.88,7.94 11.83,17.2 11.83,27.78 0,13.6 -6.91,25.13 -20.7,34.58 -13.79,9.45 -30.75,17.01 -50.84,22.68 -20.11,5.67 -41.19,9.83 -63.27,12.47 -22.06,2.65 -40.98,3.97 -56.75,3.97 -33.11,0 -62.87,-4.72 -89.27,-14.17 -26.41,-9.45 -48.49,-22.68 -66.22,-39.69 -17.74,-17.01 -31.34,-37.04 -40.8,-60.09 -9.46,-23.06 -14.18,-47.82 -14.18,-74.27l0 -212.04c0,-27.22 4.72,-52.54 14.18,-75.97 9.46,-23.44 23.26,-43.66 41.39,-60.67 18.12,-17 40.6,-30.42 67.4,-40.25 26.8,-9.83 57.94,-14.74 93.41,-14.74 66.21,0 115.49,16.63 147.8,49.89 32.33,33.26 48.48,78.24 48.48,134.93 0,52.16 -15.57,93.17 -46.7,123.03 -31.14,29.86 -82.18,44.79 -153.12,44.79 -18.14,0 -37.65,-0.76 -58.54,-2.27 -20.88,-1.51 -41.58,-4.16 -62.07,-7.93l0 66.89c0,31.75 10.83,57.08 32.51,75.98 21.68,18.89 53.8,28.34 96.37,28.34zm100.5 -328.83c0,-37.04 -9.26,-63.68 -27.78,-79.93 -18.53,-16.26 -45.13,-24.38 -79.81,-24.38 -38.63,0 -68.59,9.26 -89.87,27.78 -21.29,18.52 -31.92,43.65 -31.92,75.4l0 86.18c22.06,3.02 45.32,5.1 69.76,6.23 24.43,1.14 42.57,1.7 54.39,1.7 22.07,0 40.01,-2.64 53.8,-7.93 13.8,-5.3 24.63,-12.29 32.52,-20.98 7.88,-8.69 13,-18.71 15.37,-30.05 2.37,-11.34 3.54,-22.68 3.54,-34.02zm768.16 362.85c0,12.85 -4.33,23.43 -13.01,31.75 -8.66,8.31 -19.71,12.47 -33.11,12.47 -13.4,0 -24.43,-4.16 -33.11,-12.47 -8.66,-8.32 -13,-18.9 -13,-31.75l0 -462.63 -188.01 0 -26.01 312.96c-4.73,57.45 -17.94,103.56 -39.62,138.33 -21.68,34.77 -55.77,52.16 -102.28,52.16 -9.45,0 -18.52,-0.19 -27.19,-0.57 -8.67,-0.38 -16.35,-1.89 -23.06,-4.53 -6.7,-2.65 -12.02,-6.62 -15.96,-11.91 -3.95,-5.29 -5.92,-12.85 -5.92,-22.68 0,-15.12 4.54,-26.08 13.6,-32.88 9.07,-6.8 19.12,-10.2 30.16,-10.2 3.94,0 6.5,0.18 7.69,0.56 1.17,0.38 3.74,0.57 7.68,0.57 21.28,0 37.05,-8.32 47.29,-24.95 10.25,-16.63 16.96,-42.33 20.11,-77.1l30.74 -350.37c1.58,-16.63 7.29,-28.16 17.14,-34.59 9.86,-6.42 19.12,-9.63 27.8,-9.63l271.95 0c13.4,0 24.45,4.34 33.11,13.04 8.68,8.69 13.01,19.08 13.01,31.18l0 493.24zm344.85 -303.88l120.6 0c75.67,0 129.87,14.93 162.58,44.79 32.73,29.85 49.08,72.38 49.08,127.56 0,49.89 -16.17,90.14 -48.48,120.76 -32.32,30.61 -81.59,45.92 -147.81,45.92l-182.09 0c-13.41,0 -24.44,-4.35 -33.11,-13.04 -8.67,-8.69 -13.01,-19.09 -13.01,-31.18l0 -490.98c0,-12.09 4.34,-22.48 13.01,-31.18 8.67,-8.69 19.7,-13.04 33.11,-13.04 13.4,0 24.44,4.35 33.1,13.04 8.68,8.7 13.02,19.09 13.02,31.18l0 196.17zm0 74.83l0 188.23 133.61 0c71.74,0 107.6,-31.37 107.6,-94.11 0,-11.34 -1.57,-22.68 -4.72,-34.02 -3.16,-11.34 -9.08,-21.36 -17.74,-30.05 -8.68,-8.69 -20.9,-15.87 -36.66,-21.54 -15.76,-5.67 -36.27,-8.51 -61.49,-8.51l-120.6 0zm638.09 229.05c0,12.85 -4.34,23.43 -13.02,31.75 -8.66,8.31 -19.7,12.47 -33.1,12.47 -13.41,0 -24.44,-4.16 -33.11,-12.47 -8.67,-8.32 -13.01,-18.9 -13.01,-31.75l0 -500.05c0,-12.09 4.34,-22.48 13.01,-31.18 8.67,-8.69 19.7,-13.04 33.11,-13.04 13.4,0 24.44,4.35 33.1,13.04 8.68,8.7 13.02,19.09 13.02,31.18l0 201.84 250.67 0 0 -201.84c0,-12.09 4.34,-22.48 13,-31.18 8.68,-8.69 19.71,-13.04 33.11,-13.04 13.4,0 24.45,4.35 33.11,13.04 8.68,8.7 13.02,19.09 13.02,31.18l0 500.05c0,12.85 -4.34,23.43 -13.02,31.75 -8.66,8.31 -19.71,12.47 -33.11,12.47 -13.4,0 -24.43,-4.16 -33.11,-12.47 -8.66,-8.32 -13,-18.9 -13,-31.75l0 -223.38 -250.67 0 0 223.38zm687.75 -303.88l120.6 0c75.68,0 129.87,14.93 162.58,44.79 32.73,29.85 49.08,72.38 49.08,127.56 0,49.89 -16.16,90.14 -48.48,120.76 -32.32,30.61 -81.59,45.92 -147.81,45.92l-182.09 0c-13.41,0 -24.44,-4.35 -33.11,-13.04 -8.67,-8.69 -13.01,-19.09 -13.01,-31.18l0 -490.98c0,-12.09 4.34,-22.48 13.01,-31.18 8.67,-8.69 19.7,-13.04 33.11,-13.04 13.4,0 24.44,4.35 33.1,13.04 8.68,8.7 13.02,19.09 13.02,31.18l0 196.17zm507.26 303.88c0,12.85 -4.33,23.43 -13.01,31.75 -8.67,8.31 -19.7,12.47 -33.11,12.47 -13.4,0 -24.43,-4.16 -33.1,-12.47 -8.67,-8.32 -13.01,-18.9 -13.01,-31.75l0 -500.05c0,-12.09 4.34,-22.48 13.01,-31.18 8.67,-8.69 19.7,-13.04 33.1,-13.04 13.41,0 24.44,4.35 33.11,13.04 8.68,8.7 13.01,19.09 13.01,31.18l0 500.05zm-507.26 -229.05l0 188.23 133.61 0c71.74,0 107.6,-31.37 107.6,-94.11 0,-11.34 -1.57,-22.68 -4.72,-34.02 -3.16,-11.34 -9.08,-21.36 -17.74,-30.05 -8.68,-8.69 -20.9,-15.87 -36.66,-21.54 -15.76,-5.67 -36.27,-8.51 -61.49,-8.51l-120.6 0zm813.08 275.54c-15.77,0 -28.38,-4.91 -37.84,-14.74 -9.46,-9.83 -14.19,-21.55 -14.19,-35.15l0 -495.51c0,-12.85 4.14,-23.81 12.42,-32.89 8.28,-9.07 19.11,-13.6 32.51,-13.6 13.4,0 24.63,4.53 33.7,13.6 9.07,9.08 13.6,20.04 13.6,32.89l0 382.12 262.5 -401.4c10.25,-18.14 26.41,-27.21 48.48,-27.21 14.98,0 27,4.72 36.06,14.17 9.07,9.45 13.6,21.36 13.6,35.72l0 495.51c0,12.85 -4.33,23.81 -13,32.88 -8.67,9.07 -19.71,13.61 -33.11,13.61 -13.4,0 -24.44,-4.54 -33.11,-13.61 -8.67,-9.07 -13.01,-20.03 -13.01,-32.88l0 -382.12 -261.32 402.53c-11.82,17.39 -27.59,26.08 -47.29,26.08zm175 -729.09c13.4,0 26.4,-3.4 39.02,-10.21 12.61,-6.8 25.23,-18.9 37.83,-36.28 3.94,-6.05 9.27,-10.58 15.97,-13.61 6.7,-3.02 13.2,-4.53 19.51,-4.53 10.25,0 18.92,3.21 26.02,9.63 7.09,6.43 8.66,17.2 4.72,32.32 -3.94,15.12 -11.03,28.54 -21.28,40.25 -10.25,11.72 -22.27,21.36 -36.06,28.92 -13.8,7.56 -28.19,13.23 -43.16,17.01 -14.98,3.78 -29.17,5.66 -42.57,5.66 -13.4,0 -27.6,-1.88 -42.57,-5.66 -14.98,-3.78 -29.37,-9.45 -43.16,-17.01 -13.79,-7.56 -26.01,-17.2 -36.66,-28.92 -10.63,-11.71 -17.92,-25.13 -21.87,-40.25 -3.94,-15.12 -2.16,-25.89 5.32,-32.32 7.49,-6.42 16.35,-9.63 26.6,-9.63 6.31,0 12.82,1.51 19.52,4.53 6.7,3.03 12.02,7.56 15.96,13.61 12.61,17.38 25.23,29.48 37.84,36.28 12.61,6.81 25.62,10.21 39.02,10.21zm1281.34 682.6c0,12.85 -4.34,23.43 -13.01,31.75 -8.67,8.31 -19.7,12.47 -33.1,12.47 -13.41,0 -24.45,-4.16 -33.11,-12.47 -8.68,-8.32 -13.02,-18.9 -13.02,-31.75l0 -500.05c0,-12.09 4.34,-22.48 13.02,-31.18 8.66,-8.69 19.7,-13.04 33.11,-13.04 13.4,0 24.43,4.35 33.1,13.04 8.67,8.7 13.01,19.09 13.01,31.18l0 201.84 72.12 0 153.72 -223.38c9.46,-14.36 22.08,-21.54 37.84,-21.54 11.82,0 21.88,3.4 30.16,10.2 8.28,6.8 12.8,15.88 13.59,27.21 0,3.78 -0.59,8.13 -1.77,13.04 -1.19,4.92 -2.96,9.26 -5.32,13.04l-162 230.18 162 230.18c2.36,3.78 4.13,8.13 5.32,13.04 1.18,4.92 1.77,9.26 1.77,13.04 -0.79,11.34 -5.31,20.41 -13.59,27.22 -8.28,6.8 -18.34,10.2 -30.16,10.2 -15.76,0 -28.38,-7.18 -37.84,-21.54l-169.09 -246.06 -56.75 0 0 223.38zm679.47 44.22c-36.26,0 -68.19,-5.1 -95.77,-15.31 -27.6,-10.2 -50.65,-24.38 -69.18,-42.52 -18.52,-18.14 -32.52,-39.49 -41.98,-64.06 -9.45,-24.57 -14.18,-51.22 -14.18,-79.94l0 -189.36c0,-27.97 4.73,-54.24 14.18,-78.81 9.46,-24.56 23.46,-45.92 41.98,-64.06 18.53,-18.14 41.58,-32.51 69.18,-43.09 27.58,-10.58 59.51,-15.87 95.77,-15.87 36.27,0 68.19,5.29 95.78,15.87 27.6,10.58 50.65,24.95 69.17,43.09 18.52,18.14 32.52,39.5 41.98,64.06 9.46,24.57 14.19,50.84 14.19,78.81l0 189.36c0,28.72 -4.73,55.37 -14.19,79.94 -9.46,24.57 -23.46,45.92 -41.98,64.06 -18.52,18.14 -41.57,32.32 -69.17,42.52 -27.59,10.21 -59.51,15.31 -95.78,15.31zm0 -81.64c42.57,0 74.7,-10.58 96.37,-31.75 21.68,-21.16 32.52,-50.64 32.52,-88.44l0 -190.49c0,-37.05 -10.84,-66.15 -32.52,-87.31 -21.67,-21.17 -53.8,-31.75 -96.37,-31.75 -42.57,0 -74.69,10.58 -96.37,31.75 -21.68,21.16 -32.51,50.26 -32.51,87.31l0 190.49c0,37.8 10.83,67.28 32.51,88.44 21.68,21.17 53.8,31.75 96.37,31.75zm534.04 37.42c0,12.85 -4.34,23.43 -13.02,31.75 -8.66,8.31 -19.69,12.47 -33.1,12.47 -13.41,0 -24.44,-4.16 -33.1,-12.47 -8.68,-8.32 -13.02,-18.9 -13.02,-31.75l0 -500.05c0,-12.09 4.34,-22.48 13.02,-31.18 8.66,-8.69 19.69,-13.04 33.1,-13.04 13.41,0 24.44,4.35 33.1,13.04 8.68,8.7 13.02,19.09 13.02,31.18l0 201.84 250.67 0 0 -201.84c0,-12.09 4.34,-22.48 13.01,-31.18 8.67,-8.69 19.7,-13.04 33.1,-13.04 13.4,0 24.45,4.35 33.11,13.04 8.68,8.7 13.02,19.09 13.02,31.18l0 500.05c0,12.85 -4.34,23.43 -13.02,31.75 -8.66,8.31 -19.71,12.47 -33.11,12.47 -13.4,0 -24.43,-4.16 -33.1,-12.47 -8.67,-8.32 -13.01,-18.9 -13.01,-31.75l0 -223.38 -250.67 0 0 223.38zm796.53 0c0,12.85 -4.33,23.43 -13.01,31.75 -8.67,8.31 -19.71,12.47 -33.11,12.47 -13.4,0 -24.43,-4.16 -33.11,-12.47 -8.66,-8.32 -13,-18.9 -13,-31.75l0 -453.56 -122.97 0c-11.83,0 -21.88,-3.97 -30.16,-11.9 -8.27,-7.94 -12.41,-17.96 -12.41,-30.05 0,-12.1 4.14,-22.11 12.41,-30.05 8.28,-7.94 18.33,-11.9 30.16,-11.9l338.17 0c11.83,0 21.88,3.96 30.15,11.9 8.28,7.94 12.42,17.95 12.42,30.05 0,12.09 -4.14,22.11 -12.42,30.05 -8.27,7.93 -18.32,11.9 -30.15,11.9l-122.97 0 0 453.56zm642.82 -348.1c0,-80.89 -42.17,-121.33 -126.52,-121.33 -20.5,0 -37.24,2.27 -50.25,6.8 -13.01,4.54 -26.22,10.21 -39.62,17.01 -1.57,0.76 -5.51,2.46 -11.82,5.1 -6.31,2.65 -12.61,3.97 -18.92,3.97 -11.03,0 -19.11,-4.16 -24.24,-12.47 -5.12,-8.32 -8.07,-16.63 -8.87,-24.95 -1.57,-12.85 2.37,-24 11.83,-33.45 9.46,-9.45 22.26,-17.19 38.43,-23.24 16.16,-6.05 34.28,-10.4 54.39,-13.04 20.11,-2.65 40.4,-3.97 60.9,-3.97 74.09,0 127.11,19.28 159.03,57.83 31.93,38.55 47.9,95.62 47.9,171.22l0 249.45c0,22.68 7.09,34.02 21.28,34.02 1.58,0 2.95,-0.19 4.13,-0.57 1.19,-0.38 2.96,-0.57 5.33,-0.57 11.03,0 19.51,3.97 25.42,11.91 5.92,7.94 8.87,16.82 8.87,26.65 0,14.36 -5.52,24.38 -16.55,30.05 -11.05,5.66 -23.26,8.5 -36.67,8.5 -19.7,0 -37.24,-5.1 -52.61,-15.31 -15.37,-10.2 -27.39,-24 -36.07,-41.39 -45.72,40.07 -99.71,60.1 -161.99,60.1 -61.49,0 -107.02,-15.68 -136.57,-47.06 -29.56,-31.37 -44.34,-72.75 -44.34,-124.16l0 -4.53c0,-111.88 69.37,-167.82 208.11,-167.82 41.77,0 81.59,5.29 119.42,15.88l0 -64.63zm-120.6 123.59c-24.45,0 -44.16,2.46 -59.13,7.37 -14.98,4.91 -26.6,11.72 -34.88,20.41 -8.28,8.69 -14,18.71 -17.15,30.05 -3.15,11.34 -4.73,23.43 -4.73,36.28l0 4.54c0,26.46 7.5,48.19 22.47,65.2 14.98,17 42.17,25.51 81.59,25.51 25.23,0 48.48,-3.97 69.77,-11.91 21.28,-7.93 42.17,-20.6 62.66,-37.98l0 -122.46c-19.71,-6.05 -40.2,-10.4 -61.49,-13.04 -21.28,-2.65 -40.99,-3.97 -59.11,-3.97zm568.31 224.51c0,12.85 -4.34,23.43 -13.01,31.75 -8.67,8.31 -19.7,12.47 -33.1,12.47 -13.41,0 -24.44,-4.16 -33.11,-12.47 -8.68,-8.32 -13.01,-18.9 -13.01,-31.75l0 -500.05c0,-12.09 4.33,-22.48 13.01,-31.18 8.67,-8.69 19.7,-13.04 33.11,-13.04 13.4,0 24.43,4.35 33.1,13.04 8.67,8.7 13.01,19.09 13.01,31.18l0 201.84 72.12 0 153.73 -223.38c9.45,-14.36 22.07,-21.54 37.83,-21.54 11.83,0 21.88,3.4 30.16,10.2 8.28,6.8 12.8,15.88 13.6,27.21 0,3.78 -0.6,8.13 -1.78,13.04 -1.19,4.92 -2.96,9.26 -5.31,13.04l-162.01 230.18 162.01 230.18c2.35,3.78 4.12,8.13 5.31,13.04 1.18,4.92 1.78,9.26 1.78,13.04 -0.8,11.34 -5.32,20.41 -13.6,27.22 -8.28,6.8 -18.33,10.2 -30.16,10.2 -15.76,0 -28.38,-7.18 -37.83,-21.54l-169.1 -246.06 -56.75 0 0 223.38zm704.31 0c0,12.85 -4.34,23.43 -13.01,31.75 -8.67,8.31 -19.71,12.47 -33.11,12.47 -13.4,0 -24.43,-4.16 -33.11,-12.47 -8.67,-8.32 -13,-18.9 -13,-31.75l0 -453.56 -122.97 0c-11.83,0 -21.88,-3.97 -30.16,-11.9 -8.27,-7.94 -12.41,-17.96 -12.41,-30.05 0,-12.1 4.14,-22.11 12.41,-30.05 8.28,-7.94 18.33,-11.9 30.16,-11.9l338.17 0c11.83,0 21.88,3.96 30.15,11.9 8.28,7.94 12.42,17.95 12.42,30.05 0,12.09 -4.14,22.11 -12.42,30.05 -8.27,7.93 -18.32,11.9 -30.15,11.9l-122.97 0 0 453.56z"/>
  <g id="_1008599264">
   <path class="fil1" d="M13294.47 5866.9l-0.02 -0.01 0 -634 0.32 0c-4.85,-82.75 -33.82,-142.53 -73.7,-182.62 -50.21,-50.47 -117.78,-73.07 -175.77,-72.05l-2.66 0.66 -622 0 0 -0.1c-1.78,0.05 -3.57,0.1 -5.37,0.1 -93.89,0 -170,-76.11 -170,-170 0,-93.89 76.11,-170 170,-170l3.69 0.05 0.03 -0.05 623.65 0 0 0.63c139.08,-1.73 299.91,52.16 418.83,171.7 95.96,96.45 164.64,233.5 172.32,415.04l0.66 6.64 0 635.16 0 2.14 -0.03 0.02c-1.16,92.89 -76.8,167.84 -169.97,167.84 -93.89,0 -170,-76.11 -170,-170l0.02 -1.15z"/>
   <path class="fil1" d="M15372.44 4978.87l-0.01 0.01 -619.71 0 0 -0.59 -0.54 0.01c-70.16,1.66 -137.83,25.62 -186.58,69.22 -44.5,39.8 -73.45,99.06 -72.53,175.83l0.09 4.47 0.66 2.66 0 637.57 0 9.58 -0.29 0.19c-5.06,89.34 -79.1,160.23 -169.71,160.23 -92.33,0 -167.45,-73.59 -169.93,-165.32l-0.07 -0.06 0 -4.62 0 -637.57 0.61 0 -0.03 -2.48c-2.65,-184.4 71.47,-330.9 185.42,-432.82 109.85,-98.24 256.32,-152.07 404.4,-155.55l5.18 -0.09 3.32 -0.66 620.27 0 2.75 0 0.01 0.04c92.61,1.48 167.24,76.99 167.24,169.96 0,93.89 -76.11,170 -170,170l-0.55 -0.01z"/>
   <path class="fil1" d="M14493.8 2896.06l0.02 0.03 0 1.48 0 621.64 -0.66 0c0.14,76.76 28.63,139.04 72.27,182.95 49.24,49.54 117.29,77.41 186.11,78l0 -0.65 621.45 0 7.71 0 0.15 0.19c90.24,4.11 162.14,78.56 162.14,169.81 0,92.96 -74.6,168.47 -167.21,169.96l-0.04 0.04 -2.75 0 -621.45 0 -0.66 -0.66c-157.59,-0.95 -313.35,-64.46 -425.85,-177.63 -103.01,-103.64 -170.24,-247.63 -170.55,-422.01l-0.66 0 0 -621.64 0 -4.78 0.08 -0.05c2.55,-91.65 77.64,-165.17 169.92,-165.17 93.39,0 169.17,75.3 169.98,168.49z"/>
   <path class="fil1" d="M12412.33 3779.58l0.03 -0.07 639.76 0 0 0.38c60.53,-3.5 126.91,-27.98 174.84,-77.31 38.32,-39.43 65.24,-97.47 68.03,-177.4l-0.54 0 0 -619.17 0.2 -0.3c-0.13,-2.7 -0.2,-5.41 -0.2,-8.14 0,-93.89 76.11,-170 170,-170 93.89,0 170,76.11 170,170l-0.02 1.8 0.02 0.03 0 625.78 -0.66 3.98c-4.39,177.83 -69.77,313.07 -163.79,409.82 -114.99,118.34 -272.23,174.93 -411.9,179.87l-5.98 0.66 -634.65 0 -2.2 0.03c-93.89,0 -170,-76.11 -170,-170 0,-92.91 74.53,-168.39 167.06,-169.96z"/>
  </g>
 </g>
</svg>
